# xmcd
# 
# Track frame offsets:
#     150
#     36367
#     73777
#     121360
#     159900
#     190082
#     208687
#     229430
#     271405
#     285502
#     323992
# 
# Disc length: 4648
# 
# Revision: 1
# Processed by: cddbd v1.5.2PL0 Copyright (c) Steve Scherf et al.
# Submitted via: fre:ac v1.0.27
# 
DISCID=a412260b
DTITLE=Iro Haarla - Northbound
DYEAR=2005
DGENRE=Jazz
TTITLE0=Avian Kingdom
TTITLE1=Barcarole
TTITLE2=With Thanksgiving
TTITLE3=Time for Recollection
TTITLE4=On A Crest Of A Wave
TTITLE5=Waterworn Rocks
TTITLE6=Veil Of Mist
TTITLE7=Light In The Sadness
TTITLE8=A Singing Water Nymph
TTITLE9=Yarra, Yarra ...
TTITLE10=Northbound
EXTD=YEAR: 2005
EXTT0=
EXTT1=
EXTT2=
EXTT3=
EXTT4=
EXTT5=
EXTT6=
EXTT7=
EXTT8=
EXTT9=
EXTT10=
PLAYORDER=
